<?xml version="1.0" encoding="utf-8"?>
<svg width="38.5px" height="38.5px" viewBox="0 0 38.5 38.5" version="1.1" xmlns:xlink="http://www.w3.org/1999/xlink" xmlns="http://www.w3.org/2000/svg">
  <defs>
    <path d="M0 0L38.5 0L38.5 38.5L0 38.5L0 0Z" id="path_1" />
    <clipPath id="mask_1">
      <use xlink:href="#path_1" />
    </clipPath>
  </defs>
  <g id="bx-phone">
    <path d="M0 0L38.5 0L38.5 38.5L0 38.5L0 0Z" id="Background" fill="#FFFFFF" fill-opacity="0" fill-rule="evenodd" stroke="none" />
    <g clip-path="url(#mask_1)">
      <path d="M28.4055 19.72C28.1049 19.4189 27.6969 19.2497 27.2714 19.2497C26.8459 19.2497 26.4379 19.4189 26.1372 19.72L23.5802 22.2771C22.3947 21.9241 20.1826 21.1221 18.7805 19.72C17.3785 18.318 16.5764 16.1058 16.2235 14.9204L18.7805 12.3633C19.0817 12.0627 19.2509 11.6547 19.2509 11.2292C19.2509 10.8037 19.0817 10.3956 18.7805 10.095L12.3639 3.67835C12.0633 3.37722 11.6552 3.20801 11.2297 3.20801C10.8042 3.20801 10.3962 3.37722 10.0956 3.67835L5.74508 8.02885C5.13549 8.63843 4.7922 9.47581 4.80503 10.3308C4.84193 12.6152 5.4467 20.5494 11.6997 26.8024C17.9528 33.0555 25.887 33.6586 28.1729 33.6971L28.2178 33.6971C29.0648 33.6971 29.8653 33.3635 30.4717 32.7571L34.8222 28.4066C35.1233 28.106 35.2925 27.6979 35.2925 27.2724C35.2925 26.8469 35.1233 26.4389 34.8222 26.1383L28.4055 19.72L28.4055 19.72ZM28.2021 30.4872C26.2001 30.4535 19.3503 29.9161 13.9683 24.5325C8.56871 19.1329 8.04576 12.259 8.01367 10.2971L11.23 7.08078L15.3784 11.2292L13.3042 13.3033C12.9212 13.6861 12.7571 14.2363 12.8679 14.7663C12.9064 14.9508 13.848 19.3254 16.5109 21.9883C19.1739 24.6512 23.5484 25.5929 23.7329 25.6314C24.2628 25.7453 24.8142 25.5815 25.1959 25.1966L27.2717 23.1224L31.4201 27.2708L28.2021 30.4872L28.2021 30.4872Z" id="Shape" fill="#FFFFFF" fill-rule="evenodd" stroke="none" />
    </g>
  </g>
</svg>