<?xml version="1.0" encoding="utf-8"?>
<svg width="90px" height="90px" viewBox="0 0 90 90" version="1.1" xmlns:xlink="http://www.w3.org/1999/xlink" xmlns="http://www.w3.org/2000/svg">
  <defs>
    <path d="M0 0L90 0L90 90L0 90L0 0Z" id="path_1" />
    <clipPath id="mask_1">
      <use xlink:href="#path_1" />
    </clipPath>
  </defs>
  <g id="Close-Icon">
    <path d="M0 0L90 0L90 90L0 90L0 0Z" id="Background" fill="#FFFFFF" fill-opacity="0" fill-rule="evenodd" stroke="none" />
    <g clip-path="url(#mask_1)">
      <path d="M21 12C20.2324 12 19.4639 12.2924 18.8789 12.8789L12.8789 18.8789C11.7059 20.0519 11.7059 21.9511 12.8789 23.1211L34.7578 45L12.8789 66.8789C11.7059 68.0519 11.7059 69.9511 12.8789 71.1211L18.8789 77.1211C20.0519 78.2941 21.9511 78.2941 23.1211 77.1211L45 55.2422L66.8789 77.1211C68.0489 78.2941 69.9511 78.2941 71.1211 77.1211L77.1211 71.1211C78.2941 69.9481 78.2941 68.0489 77.1211 66.8789L55.2422 45L77.1211 23.1211C78.2941 21.9511 78.2941 20.0489 77.1211 18.8789L71.1211 12.8789C69.9481 11.7059 68.0489 11.7059 66.8789 12.8789L45 34.7578L23.1211 12.8789C22.5346 12.2924 21.7676 12 21 12L21 12Z" id="Shape" fill="#FFFFFF" stroke="none" />
    </g>
  </g>
</svg>