<?xml version="1.0" encoding="utf-8"?>
<svg width="204.99945px" height="342.31958px" viewBox="0 0 204.99945 342.31958" version="1.1" xmlns:xlink="http://www.w3.org/1999/xlink" xmlns="http://www.w3.org/2000/svg">
  <defs>
    <path d="M-0.00012207 -0.000244141L264.549 -0.000244141L264.549 268L-0.00012207 268L-0.00012207 -0.000244141Z" id="path_1" />
    <clipPath id="mask_1">
      <use xlink:href="#path_1" />
    </clipPath>
  </defs>
  <g id="icon1" transform="matrix(0.9396926 0.34202012 -0.34202012 0.9396926 -43.59565 0.00024414062)">
    <path d="M-0.00012207 -0.000244141L264.549 -0.000244141L264.549 268L-0.00012207 268L-0.00012207 -0.000244141Z" id="Background" fill="#FFFFFF" fill-opacity="0" fill-rule="evenodd" stroke="none" />
    <g clip-path="url(#mask_1)">
      <path d="M152.456 266.931C167.455 267.1 182.446 266.311 197.409 264.896C197.423 265.051 197.438 265.206 197.445 265.361C194.368 265.657 191.297 265.925 188.22 266.241C178.728 267.234 169.201 267.452 159.674 267.698C152.618 267.881 145.654 267.121 138.754 265.628C130.557 263.847 122.192 263.262 113.869 262.361C97.8849 260.622 82.0274 258.108 66.5149 253.777C65.2897 253.439 63.8814 253.236 62.8956 252.665C60.4522 251.249 57.6284 250.651 55.3469 248.849C54.1287 247.89 52.3826 247.721 51.1292 246.553C47.7141 243.384 43.475 241.491 39.4754 239.202C33.307 235.674 27.0333 232.076 22.5548 226.463C14.5134 216.387 7.40156 205.642 3.40903 193.248C-0.724324 180.426 -1.23842 167.477 2.6344 154.358C4.29619 148.711 5.57065 142.986 8.73932 137.924C10.387 135.297 12.3377 132.91 14.3092 130.531C16.6681 127.685 18.6115 124.524 21.4422 122.017C25.3643 118.552 29.2864 115.137 33.5324 112.053C37.9896 108.814 39.5671 103.878 40.5811 98.6534C41.8344 92.1893 42.3696 85.6054 44.2215 79.2471C49.397 61.4673 59.6354 47.4969 74.8802 36.9277C82.5765 31.5902 90.7306 27.0836 98.7016 22.2461C106.187 17.7114 114.045 13.7541 121.481 9.17707C138.296 -1.18097 156.372 -1.30068 174.912 1.69195C183.143 3.0228 190.938 5.92391 198.656 9.06443C207.085 12.4937 215.647 15.5707 223.365 20.5562C237.243 29.527 248.136 41.0258 254.607 56.4466C257.726 63.8683 260.832 71.2971 262.352 79.2399C263.845 87.049 264.197 94.8862 262.895 102.822C261.325 112.398 258.466 121.687 256.826 131.241C256.508 133.086 256.389 134.924 256.404 136.776C256.431 141.669 255.777 146.57 256.269 151.451C256.875 157.358 257.804 163.231 258.396 169.139C259.297 178.181 259.065 187.207 258.064 196.263C257.121 204.783 255.445 213.128 253.107 221.345C251.713 226.246 249.82 231.012 247.292 235.42C246.101 237.497 245.573 240.314 242.848 241.322C238.243 248.982 230.321 252.419 223.124 256.763C219.97 258.671 216.47 259.862 213.161 261.425C210.464 262.699 207.655 262.621 204.929 263.178C197.487 264.705 189.889 265.114 182.326 265.706C172.411 266.473 162.448 266.719 152.456 266.931L152.456 266.931ZM56.7838 185.94C64.2266 181.081 71.9937 176.694 79.014 170.287C70.5502 174.195 58.164 182.863 56.7838 185.94L56.7838 185.94ZM86.1465 154.465C85.9423 154.203 85.7382 153.943 85.527 153.69C79.6685 158.091 73.8098 162.492 68.6201 167.731C75.0561 164.062 80.457 159.07 86.1465 154.465L86.1465 154.465ZM78.9434 83.873C83.7739 78.0639 89.731 73.2898 94.2446 67.22C88.0833 71.8251 83.0908 77.4794 78.9434 83.873L78.9434 83.873ZM33.6171 141.881C36.3562 141.163 42.8272 133.03 43.3342 129.692C39.4332 133.53 36.821 137.945 33.6171 141.881L33.6171 141.881ZM145.14 119.813C140.859 120.954 130.797 127.256 128.818 130.037C134.324 126.593 139.557 123.313 145.14 119.813L145.14 119.813ZM228.287 32.9065C231.616 36.7724 235.117 40.441 239.292 43.4195C236.278 39.2368 232.455 35.8921 228.287 32.9065L228.287 32.9065ZM96.7086 50.7146C92.4556 53.9819 87.8997 56.9323 85.3085 61.9106C89.0545 58.1223 92.9202 54.4607 96.7086 50.7146L96.7086 50.7146ZM69.0077 162.351C73.4086 158.991 77.9574 155.809 81.7598 151.746C77.2321 154.949 72.782 158.253 69.0077 162.351L69.0077 162.351ZM126.544 9.31077C129.389 7.97289 132.268 6.79696 135.226 5.87452C138.141 4.96617 141.127 4.26203 144.084 3.47339C137.493 3.84659 129.599 6.50121 126.544 9.31077L126.544 9.31077ZM127.558 41.5115C122.855 43.1029 114.207 48.7431 113.109 50.94C115.665 49.2783 118.08 47.8278 120.361 46.2011C122.706 44.5323 125.192 43.0959 127.558 41.5115L127.558 41.5115ZM74.549 184.257C74.6405 184.405 74.7323 184.553 74.8168 184.693C78.3727 183.56 81.1468 181.152 84.055 178.969C83.9705 178.828 83.8793 178.687 83.7947 178.547C80.7176 180.448 77.6331 182.356 74.549 184.257L74.549 184.257ZM172.321 110.434C168.505 112.765 164.688 115.088 160.872 117.419C160.956 117.56 161.041 117.693 161.125 117.835C165.153 115.841 168.927 113.433 172.321 110.434L172.321 110.434ZM166.519 123.08C168.757 122.812 175.672 118.348 177.102 116.517C173.39 118.813 169.954 120.947 166.519 123.08L166.519 123.08ZM77.6054 150.113C77.4858 149.958 77.366 149.795 77.2393 149.64C74.4298 151.809 71.6481 154.02 69.3877 156.837C72.1268 154.598 74.8663 152.359 77.6054 150.113L77.6054 150.113ZM56.2839 124.22C54.3755 126.924 52.4602 129.629 50.552 132.326C53.1714 130.15 54.9882 127.404 56.2839 124.22L56.2839 124.22ZM15.8722 150.781C17.2594 147.704 18.6539 144.628 20.041 141.558C18.0201 144.346 16.4989 147.352 15.8722 150.781L15.8722 150.781ZM179.75 66.6355C179.679 66.4594 179.601 66.2763 179.531 66.1003C176.982 67.1566 174.44 68.2128 171.892 69.2761C171.955 69.4309 172.018 69.5788 172.081 69.7338C174.538 68.4592 177.425 68.2409 179.75 66.6355L179.75 66.6355ZM173.067 131.029C175.454 130.403 177.489 129.227 179.243 127.594C176.785 128.038 174.969 129.642 173.067 131.029L173.067 131.029ZM20.9213 130.861C19.1539 131.868 17.992 133.339 17.0625 135.008C16.9146 135.269 16.6187 135.536 16.9708 135.825C17.3087 136.114 17.5766 135.847 17.7526 135.586C18.8088 134.023 19.858 132.439 20.9213 130.861L20.9213 130.861ZM78.7246 55.1087C80.4639 53.4822 82.2524 51.9329 83.4495 49.8628C81.2172 51.0316 79.9358 53.0526 78.7246 55.1087L78.7246 55.1087ZM25.4279 142.106C23.5268 143.965 21.9776 147.043 21.9495 148.67C23.1888 146.324 24.3083 144.212 25.4279 142.106L25.4279 142.106ZM213.155 249.616C210.76 250.223 208.366 250.828 205.965 251.434C208.528 251.377 210.992 250.933 213.155 249.616L213.155 249.616ZM69.599 174.455C71.6973 173.399 73.6969 172.258 75.3727 170.638C73.2674 171.653 71.3241 172.919 69.599 174.455L69.599 174.455ZM256.466 78.8669C256.648 80.1555 255.51 81.5639 257.034 82.8876C257.802 81.3455 257.134 80.1062 256.466 78.8669L256.466 78.8669ZM149.759 99.5898C151.647 98.9983 153.273 97.9491 154.808 96.738C152.949 97.3717 151.281 98.3575 149.759 99.5898L149.759 99.5898ZM154.802 265.355C154.802 265.761 154.802 266.099 154.802 266.505C156.738 266.505 158.675 266.505 160.617 266.505C160.617 266.099 160.617 265.761 160.617 265.355C158.675 265.355 156.738 265.355 154.802 265.355L154.802 265.355Z" id="Shape" fill="#FFCA0F" fill-rule="evenodd" stroke="none" />
    </g>
  </g>
</svg>